PathFileType	4	(X/Y/Z)	Patient4_TMGait_0pt3_03_right_25.trc.trc
DataRate	CameraRate	NumFrames	NumMarkers	Units	OrigDataRate	OrigDataStartFrame	OrigNumFrames
53.846153846154	53.846153846154	7	33	mm	53.846153846154	1	       141
Frame#	Time	Sacral			L.Shoulder			Chest			R.Shoulder			Neck			R.ASIS			L.ASIS			R.Thigh.Superior			R.Thigh.Lateral			R.Thigh.Inferior			R.Patella			L.Thigh.Superior			L.Thigh.Lateral			L.Thigh.Inferior			L.Patella			L.Shank.Superior			L.Shank.Lateral			L.Shank.Inferior			R.Shank.Superior			R.Shank.Lateral			R.Shank.Inferior			R.Heel			R.Midfoot.Superior			R.Midfoot.Lateral			R.Toe			L.Heel			L.Midfoot.Lateral			L.Midfoot.Superior			L.Toe			L.Elbow			L.Wrist			R.Elbow			R.Wrist			
		X1	Y1	Z1	X2	Y2	Z2	X3	Y3	Z3	X4	Y4	Z4	X5	Y5	Z5	X6	Y6	Z6	X7	Y7	Z7	X8	Y8	Z8	X9	Y9	Z9	X10	Y10	Z10	X11	Y11	Z11	X12	Y12	Z12	X13	Y13	Z13	X14	Y14	Z14	X15	Y15	Z15	X16	Y16	Z16	X17	Y17	Z17	X18	Y18	Z18	X19	Y19	Z19	X20	Y20	Z20	X21	Y21	Z21	X22	Y22	Z22	X23	Y23	Z23	X24	Y24	Z24	X25	Y25	Z25	X26	Y26	Z26	X27	Y27	Z27	X28	Y28	Z28	X29	Y29	Z29	X30	Y30	Z30	X31	Y31	Z31	X32	Y32	Z32	X33	Y33	Z33	

1	46.660000000000	675.475417005464	1002.667712947163	461.272555979044	877.176096606106	1422.844485872050	275.192749124328	969.655880211881	1352.360730777849	441.547742240520	884.274868820557	1431.415292122895	611.305931051413	851.822418222524	1487.988110736956	431.267472980061	900.964136486382	936.333666568294	586.011873229084	895.829793055010	951.057084902634	312.179326298128	964.740053962871	747.761607393751	564.245895740007	904.117581276142	633.374659225178	635.499493226137	990.086022686194	580.744298794568	560.386379142694	989.744041016174	467.611046514690	587.088508545253	959.674487273262	750.855558758468	354.049600220466	889.039592227957	624.062550125945	296.218105010710	977.324441064724	558.353187114360	368.825695510111	983.745542896636	485.338899729514	379.364423169786	951.059260227824	410.171329362425	373.038094340962	859.796603564241	299.850983014224	316.480893039549	893.573883177137	187.802705034302	393.998674675445	903.883874123195	404.329924671806	594.929510475528	776.223346537197	384.195283105009	652.486527795560	749.403188769858	275.164746641624	608.424287892875	546.341919657407	249.753143431468	570.587434661846	693.480055996438	155.459548941671	628.414569956645	584.353828714217	181.927442165643	650.451213348138	728.991302824799	33.295021469522	664.079737167660	753.025718453672	38.207952621920	428.218570657278	832.064503495276	35.927446332627	352.304983386784	914.371515685234	95.375839159553	385.541539833311	1043.936954713772	41.680389935999	364.048021081985	912.572099885046	1080.440291169555	136.816281092653	1081.111322751693	880.400015082087	149.577145519750	873.007122367392	1077.734955044925	727.081658342721	980.327088168636	839.354516512366	740.663140423432	
2	46.678571428571	675.305146630441	1000.706722131951	457.712409024224	880.355068883849	1422.265278799701	274.370994191260	969.913742037874	1350.879611520859	441.837405711235	881.791989763545	1429.037731115500	610.564481894972	852.695475886988	1486.704516522409	430.542113469501	900.127911854188	936.174398522898	584.227165465654	897.128951501940	949.504654478881	310.326643015083	968.455602303554	751.187124489455	561.471867833266	911.938345688313	635.572456114015	633.056825354557	998.684591421941	585.319538325019	557.069472910254	1002.050495646147	472.023500172991	583.893063703324	960.800736354608	749.233591125855	353.296982404910	890.759778135809	622.163460601462	295.949917887409	978.654849160745	556.704386277661	369.487222400513	984.997346285920	483.297336296159	380.245368248503	950.975888324370	408.120585472977	373.779214216854	858.201107110769	299.210200610537	316.952438478397	889.765519891799	186.785249048613	394.458341812982	917.096321669230	407.003565135034	592.285096510009	789.681213462633	384.789633007523	649.829571854928	764.834019293439	275.083942227899	606.168676127852	561.547984733686	244.392173903573	569.126089090408	712.054246307684	155.333017358711	626.355396953006	602.239183506588	178.038672711736	648.890678154528	751.670878705278	34.352660402848	661.551519439064	747.287325796750	38.306366613492	428.187113064635	826.355068375445	35.979543306639	352.332123945572	908.726367142994	95.257748487818	385.719195511294	1038.228361253642	41.427848240983	364.027750228465	922.498465924467	1081.624208629505	134.876427518018	1096.561297335140	886.968583023302	149.587945840998	854.736441147453	1077.094138218794	724.587134399693	943.049318089746	834.101044362958	742.103082035690	
3	46.697142857143	675.130488926083	998.772547304126	454.073520811857	883.604686264336	1421.653270247838	273.603659184754	970.150060346122	1349.401301849702	442.219015362298	879.202639905395	1426.709666405306	609.840276468259	853.559000945719	1485.417766981290	429.834375539147	899.213403541806	935.980384277637	582.513509846453	898.500063824295	947.962628060138	308.544516142169	972.015267351801	754.578914930380	558.783504478517	919.586681900435	637.788509812591	630.683328286329	1007.048697483187	589.880623787570	553.814810780901	1014.161216127037	476.551902565924	580.808230361825	961.922003960285	747.571630013992	352.569035356637	892.416849496942	620.250616212599	295.663858681258	979.883286756248	555.011462018383	370.140176528633	986.113990757945	481.222341533686	381.125629014603	950.762923274000	406.049949789263	374.515131139582	856.490826637172	298.552935081735	317.407862360555	885.828675966155	185.760143496328	394.908681818389	930.358641796737	409.648782658991	589.765246839157	803.329000954274	384.871553607279	647.279025926874	780.924379872583	274.443506434925	604.032337657453	577.744839742560	237.541000727650	567.729232719857	731.783215011316	154.622688796375	624.503525362296	621.304821354955	173.020280346697	647.460064314553	775.964851162995	35.192012445116	659.317660785126	741.426456734675	38.402617660913	428.155346139952	820.525054380322	36.028097486912	352.356404526198	902.960600482595	95.137046447287	385.892709309859	1032.399829829204	41.175623240705	364.005202312370	932.480271772205	1082.781529346159	133.057990456521	1112.078040620969	893.628858221486	149.862655468712	836.122884525832	1076.800212732812	722.067231991755	905.587535089333	829.509218536458	743.363694397485	
4	46.715714285714	674.959031879187	996.965488544099	450.426082522212	886.872047322290	1421.031076198364	272.948137882108	970.350714336797	1347.996148612519	442.736541503265	876.532495708291	1424.551769929495	609.163691868592	854.386767037079	1484.187764232706	429.178510091204	898.200366852903	935.760841274904	580.968868660753	899.942314211653	946.502055305337	306.935501925876	975.203872737309	757.816225961543	556.325227524425	926.686593807701	639.959511172509	628.497484013341	1014.762700865505	594.274143196211	550.778370245728	1025.564360768953	481.125311951464	577.989598103719	962.980387088357	745.907065568139	351.910031609531	893.895185096293	618.391849139014	295.365915831229	980.876068574595	553.309339493853	370.766335641942	986.941398658848	479.170067186741	381.982458440609	950.313906351405	404.025209344572	375.221217325663	854.619127192952	297.896948041655	317.825785063765	881.787898896271	184.761122909716	395.331501620514	943.275639733032	412.191490240070	587.508471812222	816.886743169359	384.193981892528	644.982470770907	797.573797096099	273.033332148271	602.143336923877	595.076150778916	228.724653115707	566.493107109987	752.727185985331	153.110277511568	622.982552952256	641.697274944976	166.522688731990	646.269593839005	802.018181276076	35.782994317723	657.545472532709	735.537661811333	38.492938683670	428.124230438711	814.669255109101	36.070577634818	352.375593004139	897.166417684052	95.016651094449	386.055137323456	1026.546283063132	40.932674782747	363.980647244409	942.247392174827	1083.872218075280	131.504533786874	1127.233987514794	900.245161519506	150.559936525756	817.576482880154	1077.055356888462	719.564514306534	869.007835526439	826.048393910509	744.301606110366	
5	46.734285714286	674.803053128991	995.380721127035	446.830350948445	890.119473991368	1420.431378025469	272.452851159637	970.507092078583	1346.739407830036	443.428925845961	873.803510143981	1422.680665307245	608.559029218912	855.161526450756	1483.079169516391	428.601566497888	897.071080329778	935.538478259113	579.677250896856	901.456451134505	945.193967275391	305.588073578964	977.834760473659	760.801749912993	554.221685885667	932.899743514265	642.028483057519	626.599187892752	1021.470741542960	598.371071490563	548.103368686118	1035.821811739404	485.688803954195	575.569262756112	963.915232332303	744.275782009583	351.358586965177	895.080398554181	616.653946271408	295.063514040244	981.495130330626	551.631294339286	371.353105982465	987.322429380702	477.194534132134	382.797415295585	949.511768976754	402.109178564299	375.876279228128	852.521193379768	297.261248801916	318.188183849877	877.641942866091	183.819812716179	395.711553660237	955.517201863029	414.588626006046	585.630323033007	830.150803147788	382.581008665854	643.062363498726	814.729911179498	270.734734837619	600.608270774045	613.745143276907	217.639142094483	565.496545109874	774.962776221315	150.676544690937	621.869345487190	663.603628209754	158.346658185227	645.405407864221	829.953129015053	36.193403748091	656.355374594787	729.683035963720	38.574586628145	428.093375136186	808.848791515867	36.105045957196	352.387780296129	891.402880390271	94.899494008028	386.200346511941	1020.728924700258	40.707046808571	363.954792700305	951.595987200729	1084.872159953878	130.345101903589	1141.699329670625	906.720215687068	151.823759127065	799.438359173922	1078.029029407935	717.095715489362	834.174654014122	824.065945320317	744.797596379790	
6	46.752857142857	674.678134232301	994.104093285894	443.338030302375	893.322983514979	1419.896940839441	272.153811188573	970.617548293357	1345.707066630063	444.325019346331	871.038431679667	1421.200956858821	608.043625055654	855.876129711993	1482.158117552815	428.122955639287	895.814514254219	935.349974993425	578.702875687993	903.041731118994	944.105905614585	304.570439537012	979.764003322028	763.466851877137	552.570179140640	937.947730134594	643.946994649465	625.063879778792	1026.900893696025	602.072573528340	545.911756208817	1044.594200011351	490.199866416095	573.644614159812	964.665256983433	742.712286515746	350.946316798327	895.865704622005	615.100246523066	294.766596617345	981.607790848101	550.009533845442	371.894605828444	987.108554973018	475.346780130350	383.557367178067	948.238948739945	400.359902031974	376.463760295257	850.121497908543	296.666024327185	318.481909540910	873.369801036446	182.964874006386	396.037650944035	966.827506541052	416.830519994751	584.211154900507	842.992465516525	379.957573589665	641.608856984429	832.356409849112	267.550815788143	599.501983378114	633.951288510146	204.235731711634	564.799368372019	798.524538042719	147.331741301147	621.183540731295	687.183425553801	148.500450748551	644.920938222566	859.788295061983	36.586121401620	655.794807335986	723.895452102311	38.645991355045	428.060983708254	803.094287371446	36.130181544338	352.391654904794	885.699168561410	94.788536248610	386.323404657162	1014.978456098622	40.505493678926	363.928785098796	960.389902740924	1085.774595652837	129.684863615885	1155.248638876573	912.995845964210	153.767624189546	781.986337310914	1079.834000720763	714.653969038653	801.733005996925	823.746853012374	744.768971654559	
7	46.771428571429	674.600896308367	993.208525437623	439.994193304699	896.469853483993	1419.477894215289	272.073860563349	970.687777137964	1344.969649944885	445.441045759731	868.264295265870	1420.197291372431	607.628345128579	856.533132814578	1481.487185949804	427.756003470437	894.429016185512	935.243237098241	578.087794360931	904.693105901281	943.297249279346	303.928159842615	980.898794048583	765.773199167979	551.437454598982	941.628731610405	645.677557679455	623.941204786608	1030.877580479885	605.312267788687	544.297845051446	1051.653214646514	494.624727665246	572.272367429058	965.170465650712	741.248937795728	350.698408311311	896.157345292003	613.787718462826	294.487938984417	981.096305891605	548.475061640653	372.391400370960	986.170234263589	473.673117418866	384.254665346895	946.387902680706	398.828586567056	376.972269330218	847.342790040934	296.131874056364	318.699460474148	868.938924959470	182.221225883344	396.303279073564	977.026033375434	418.937518155797	583.289330197821	855.347259736513	376.360629221917	640.678921467338	850.401690543465	263.613001532366	598.862088669744	655.825900728313	188.755614631208	564.446616827227	823.361833107601	143.220737611311	620.889672256088	712.508597840566	137.213032553868	644.833883179530	891.387210470802	37.190603389071	655.819887004827	718.184500313307	38.706708705850	428.024201563926	797.412283005391	36.145343149695	352.386613876490	880.060898950311	94.686720681621	386.420900496895	1009.301444569440	40.333106095454	363.904092966280	968.551506093550	1086.588188528895	129.599822324907	1167.753096654417	919.050121051230	156.465754532625	765.445223430810	1082.511947127739	712.215877376804	772.119837234220	825.104230097195	744.175526715321	
